<svg xmlns="http://www.w3.org/2000/svg" xmlns:xlink="http://www.w3.org/1999/xlink" viewBox="0 0 565.42 688.09"><defs><style>.cls-1{fill:none;}.cls-2{clip-path:url(#clip-path);}.cls-3{fill:#1c2342;}.cls-4{fill:#1a2d4c;}.cls-5{fill:#073b5a;}.cls-6{fill:#024b64;}.cls-7{fill:#015d6f;}.cls-8{fill:#046b79;}.cls-9{fill:#007b80;}.cls-10{fill:#008989;}.cls-11{fill:#009792;}.cls-12{fill:#fff;}</style><clipPath id="clip-path" transform="translate(0 190.26)"><path class="cls-1" d="M523.94,182.11q-4.62-22.23-15.23-38.71-15.37-23.48-41.79-36.06T406.69,94.77q-30.75,0-54.64,10.06-23.7,10-41.75,30.7V235.94c.42-14.73,1.29-25.84,2.63-33.15a88.24,88.24,0,0,1,10.2-28.65,79.61,79.61,0,0,1,32-30.88q20.26-10.77,47.09-10.76,45.84,0,66.66,24.59t20.82,79.1V408.35h38.85V247.64Q528.55,204.32,523.94,182.11Z"/></clipPath></defs><title>Recurso 1</title><g id="Capa_2" data-name="Capa 2"><g id="Capa_1-2" data-name="Capa 1"><g class="cls-2"><circle class="cls-3" cx="425.11" cy="507.05" r="140.27"/><circle class="cls-4" cx="425.11" cy="461.21" r="140.27"/><circle class="cls-5" cx="425.11" cy="415.36" r="140.27"/><circle class="cls-6" cx="425.11" cy="369.52" r="140.27"/><circle class="cls-7" cx="425.11" cy="323.68" r="140.27"/><circle class="cls-8" cx="425.11" cy="277.84" r="140.27"/><circle class="cls-9" cx="425.11" cy="231.99" r="140.27"/><circle class="cls-10" cx="425.11" cy="186.15" r="140.27"/><circle class="cls-11" cx="425.11" cy="140.31" r="140.27"/></g><path class="cls-12" d="M274.18,148.13V0h39.68V406.93H274.18V360.54a142.61,142.61,0,0,1-51.43,40.1A151.68,151.68,0,0,1,157.63,415q-66.52,0-112.07-47T0,252.93Q0,185.3,45,139T157.63,92.79q36.33,0,66.1,14.11A136.37,136.37,0,0,1,274.18,148.13Zm1.11,108.16q0-52.55-34.79-89.72T158.75,129.4q-48.63,0-83.29,35.36T40.8,251.26q0,53.94,34.8,90.55t84.27,36.61q45.54,0,80.49-36.61T275.29,256.29Z" transform="translate(0 190.26)"/><path class="cls-12" d="M258.79,434.89v-24.6h6.59v67.58h-6.59v-7.71a23.64,23.64,0,0,1-8.54,6.66,25.28,25.28,0,0,1-10.82,2.39,24.91,24.91,0,0,1-18.61-7.8,26.41,26.41,0,0,1-7.56-19.12,26.07,26.07,0,0,1,7.47-18.91,25,25,0,0,1,18.7-7.68,25.37,25.37,0,0,1,11,2.34A22.77,22.77,0,0,1,258.79,434.89Zm.18,18a21,21,0,0,0-5.78-14.9,18,18,0,0,0-13.57-6.17,18.67,18.67,0,0,0-13.83,5.87A19.72,19.72,0,0,0,220,452a21,21,0,0,0,5.78,15,18.57,18.57,0,0,0,14,6.08q7.57,0,13.37-6.08A19.89,19.89,0,0,0,259,452.85Z" transform="translate(0 190.26)"/><path class="cls-12" d="M325.81,454.43H279.72a19.78,19.78,0,0,0,6,13.47A18.93,18.93,0,0,0,299.3,473a18.57,18.57,0,0,0,10.35-3,19.6,19.6,0,0,0,7.11-8.3h7.42a29.23,29.23,0,0,1-9.91,13,24.87,24.87,0,0,1-14.78,4.53,25.23,25.23,0,0,1-18.84-7.93,26.4,26.4,0,0,1-7.71-19.08q0-11.64,7.54-19.26t19.29-7.61q11.5,0,18.77,7.92T325.81,454Zm-7.24-5.71q-1.86-8.52-6.83-12.82t-12.95-4.31a18.15,18.15,0,0,0-12.57,4.63,20.1,20.1,0,0,0-6.32,12.5Z" transform="translate(0 190.26)"/><path class="cls-12" d="M330.08,461.81h6.73V462a11.62,11.62,0,0,0,2.73,7.92,8.69,8.69,0,0,0,6.78,3.13,9,9,0,0,0,6.41-2.41,8,8,0,0,0,2.55-6.08,8.44,8.44,0,0,0-2-5.9c-1.35-1.48-3.78-2.88-7.31-4.18q-8.49-3-11.09-6.17a12.83,12.83,0,0,1-2.6-8.45,13.54,13.54,0,0,1,4.34-10.16,14.61,14.61,0,0,1,10.51-4.18q6.54,0,10.4,3.72t4.13,10.35h-7a8.23,8.23,0,0,0-2.3-5.62,7.79,7.79,0,0,0-5.64-2,7.22,7.22,0,0,0-5.34,2.16,7.34,7.34,0,0,0-2.13,5.36,7.61,7.61,0,0,0,.88,3.83,8.11,8.11,0,0,0,2.93,2.81,23.07,23.07,0,0,0,5.4,2.23c2.37.71,3.95,1.24,4.76,1.58A13.77,13.77,0,0,1,362.47,464a14.35,14.35,0,0,1-4.59,10.91,16.39,16.39,0,0,1-11.65,4.31,15,15,0,0,1-11.56-4.71Q330.3,469.79,330.08,461.81Z" transform="translate(0 190.26)"/><path class="cls-12" d="M377,420.82h-6.54V410.29H377Zm-6.54,57.05V426.81H377v51.06Z" transform="translate(0 190.26)"/><path class="cls-12" d="M387.54,426.81h6.35v5.8a18.92,18.92,0,0,1,7-5.15,23.25,23.25,0,0,1,9.07-1.67,23,23,0,0,1,10,2.09,16.61,16.61,0,0,1,6.94,6,18.71,18.71,0,0,1,2.53,6.42,57.7,57.7,0,0,1,.77,10.89v26.69h-6.45V449.28q0-9.06-3.46-13.14t-11.07-4.08a16.43,16.43,0,0,0-7.82,1.78,13.17,13.17,0,0,0-5.31,5.13,14.7,14.7,0,0,0-1.7,4.76,60.41,60.41,0,0,0-.49,9.31v24.83h-6.35Z" transform="translate(0 190.26)"/><path class="cls-12" d="M449.31,482a12.79,12.79,0,0,0,5.38,6.94,17.24,17.24,0,0,0,9.47,2.49q8.73,0,14-5.81t5.26-15.5v-1.34a26,26,0,0,1-8.44,7.63A21.49,21.49,0,0,1,464.53,479a25.82,25.82,0,0,1-19.12-7.68,27.76,27.76,0,0,1-.09-38.09,27,27,0,0,1,29.77-5.33,23,23,0,0,1,8.33,7.24v-8.36h6.41v42.61q0,13.36-6.71,20.88t-18.49,7.52a25.57,25.57,0,0,1-14.9-4.29,19.26,19.26,0,0,1-8-11.49Zm-4.55-30.12a21,21,0,0,0,5.69,15,18.14,18.14,0,0,0,13.71,6q7.57,0,13.37-6.06a19.89,19.89,0,0,0,5.8-14.23,21.13,21.13,0,0,0-5.71-14.89,17.74,17.74,0,0,0-13.46-6.18,18.44,18.44,0,0,0-13.69,5.87A20,20,0,0,0,444.76,451.92Z" transform="translate(0 190.26)"/><path class="cls-12" d="M496.74,461.81h6.73V462a11.63,11.63,0,0,0,2.74,7.92A8.69,8.69,0,0,0,513,473a8.93,8.93,0,0,0,6.4-2.41,8,8,0,0,0,2.56-6.08,8.48,8.48,0,0,0-2-5.9c-1.35-1.48-3.79-2.88-7.31-4.18q-8.49-3-11.1-6.17a12.89,12.89,0,0,1-2.59-8.45,13.54,13.54,0,0,1,4.34-10.16,14.61,14.61,0,0,1,10.51-4.18q6.54,0,10.39,3.72t4.14,10.35h-7A8.23,8.23,0,0,0,519,434a7.79,7.79,0,0,0-5.64-2,7.21,7.21,0,0,0-5.34,2.16,7.34,7.34,0,0,0-2.13,5.36,7.61,7.61,0,0,0,.88,3.83,8.15,8.15,0,0,0,2.92,2.81,23.17,23.17,0,0,0,5.41,2.23c2.37.71,3.95,1.24,4.76,1.58A13.77,13.77,0,0,1,529.14,464a14.35,14.35,0,0,1-4.59,10.91,16.39,16.39,0,0,1-11.65,4.31,15,15,0,0,1-11.56-4.71Q497,469.79,496.74,461.81Z" transform="translate(0 190.26)"/></g></g></svg>